<?xml version="1.0" standalone="no"?>
<!DOCTYPE svg PUBLIC "-//W3C//DTD SVG 20010904//EN"
 "http://www.w3.org/TR/2001/REC-SVG-20010904/DTD/svg10.dtd">
<svg version="1.0" xmlns="http://www.w3.org/2000/svg"
 width="500.000000pt" height="500.000000pt" viewBox="0 0 500.000000 500.000000"
 preserveAspectRatio="xMidYMid meet">
<metadata>
Created by potrace 1.14, written by Peter Selinger 2001-2017
</metadata>
<g transform="translate(0.000000,500.000000) scale(0.100000,-0.100000)"
fill="#000000" stroke="none">
<path d="M2064 3130 c0 -1156 -4 -1352 -24 -1405 -5 -14 -8 -25 -5 -25 2 0 -4
-24 -14 -53 -53 -152 -133 -228 -274 -257 -209 -43 -394 38 -536 234 -20 28
-43 63 -50 79 -17 32 -28 33 -61 7 -14 -12 -140 -106 -280 -211 -140 -104
-259 -194 -264 -199 -16 -16 124 -209 224 -310 212 -211 445 -317 785 -356 47
-5 316 -5 355 0 98 13 132 20 210 42 290 83 505 260 649 536 43 83 103 254
125 360 l6 27 64 -48 c74 -56 116 -77 371 -187 17 -7 82 -33 145 -59 218 -88
259 -119 265 -196 6 -79 -54 -145 -150 -164 -58 -11 -192 -6 -270 10 -131 27
-290 97 -368 162 -36 29 -38 29 -62 -6 -11 -15 -37 -48 -57 -72 -21 -24 -82
-100 -137 -168 l-100 -124 41 -36 c152 -134 378 -238 602 -278 130 -23 365
-22 474 2 12 3 30 7 40 9 151 34 305 118 410 224 65 65 85 92 129 177 27 53
39 86 60 170 3 11 7 64 9 119 7 185 -45 338 -153 452 -102 106 -171 147 -411
240 -265 104 -293 115 -367 150 -68 31 -124 75 -126 98 0 6 -2 20 -4 31 -8 38
15 94 48 118 47 36 98 49 190 49 128 0 261 -43 391 -126 l55 -35 72 92 c40 51
76 94 79 97 3 3 30 37 60 75 30 39 65 81 77 95 13 14 23 30 23 37 0 18 -131
113 -220 161 -165 88 -328 126 -540 126 -132 -1 -170 -5 -256 -26 -112 -29
-227 -81 -303 -139 -28 -22 -51 -33 -52 -26 -1 6 -2 397 -3 867 l-1 855 -435
0 -436 0 0 -1195z"/>
</g>
</svg>
